<?xml version="1.0" encoding="iso-8859-1"?>
<!-- Generator: Adobe Illustrator 16.0.0, SVG Export Plug-In . SVG Version: 6.00 Build 0)  -->
<!DOCTYPE svg PUBLIC "-//W3C//DTD SVG 1.1//EN" "http://www.w3.org/Graphics/SVG/1.1/DTD/svg11.dtd">
<svg version="1.1" id="Capa_1" xmlns="http://www.w3.org/2000/svg" xmlns:xlink="http://www.w3.org/1999/xlink" x="0px" y="0px"
	 width="140.105px" height="140.105px" viewBox="0 0 140.105 140.105" style="enable-background:new 0 0 140.105 140.105;"
	 xml:space="preserve">
<g>
	<g>
		<path d="M71.887,73.441l-3.109-3.107l8.312,18.534l17.148-17.147L63.134,57.752l2.592,5.781l8.034,8.033
			c0.521,0.52,0.521,1.357,0,1.875C73.244,73.958,72.402,73.958,71.887,73.441z"/>
		<polygon points="74.7,34.993 76.123,36.419 97.683,46.721 80.325,29.366 		"/>
		<path d="M96.27,34.055L85.956,23.741l-3.752,3.752l17.818,17.817c0.519,0.519,0.519,1.357,0,1.876
			c-0.19,0.19-0.424,0.285-0.668,0.336l12.914,6.173l20.574-20.575c2.07-2.07,2.07-5.43,0-7.503L112.21,4.986
			c-2.069-2.071-5.43-2.071-7.503,0l-9.379,9.379l17.817,17.818c0.52,0.519,0.52,1.356,0,1.875s-1.356,0.519-1.875,0L93.453,16.241
			l-5.627,5.627L98.14,32.182c0.519,0.519,0.519,1.356,0,1.875C97.626,34.572,96.786,34.572,96.27,34.055z"/>
		<path d="M39.062,70.629l-3.751,3.752l10.314,10.313c0.519,0.519,0.519,1.356,0,1.875c-0.519,0.521-1.357,0.521-1.876,0
			L33.435,76.256l-5.627,5.627L45.625,99.7c0.519,0.521,0.519,1.356,0,1.876s-1.357,0.52-1.876,0L25.932,83.76l-3.751,3.752
			l10.314,10.313c0.519,0.519,0.519,1.356,0,1.875c-0.519,0.521-1.357,0.521-1.876,0L20.305,89.387l-5.627,5.627l17.818,17.817
			c0.519,0.519,0.519,1.356,0,1.875c-0.519,0.521-1.357,0.521-1.876,0L12.806,96.887L1.554,108.139
			c-2.071,2.071-2.071,5.432,0,7.504l20.631,20.631c2.07,2.072,5.43,2.072,7.503,0l29.226-29.23L43.549,75.116L39.062,70.629z"/>
		<path d="M130.233,75.535l-0.76-2.277c-1.548-6.192-5.708-8.667-5.708-8.667l-15.152-7.243L85.402,46.254l-6.119-2.926
			l-8.741-4.178l-8.724-4.17c0.848-1.659-0.602-3.379-0.602-3.379L39.102,9.485l-7.077,7.077c0,0-8.958-8.958-12.273-12.273
			c-1.598-1.598-2.996-2.012-4.012-2.012c-1.094,0-1.749,0.478-1.749,0.478l-2.312,2.307L9.91,6.833L8.139,8.602
			c0,0-2.321,2.987,0.997,6.302c3.318,3.318,12.273,12.273,12.273,12.273l-7.077,7.079l22.115,22.115c0,0,1.077,0.638,2.307,0.638
			c0.441,0,0.904-0.083,1.342-0.307l4.19,8.707l6.207,12.901l3.479,7.229l8.592,17.854l7.277,15.117c0,0,2.542,4.092,8.736,5.641
			l2.675,0.882c0,0,2.471,2.624,5.519,5.86c1.713,1.818,2.894,2.759,3.361,2.759c0.365,0,0.295-0.573-0.3-1.747l-2.456-4.85
			l1.76,0.578L73.404,92.557L59.096,60.653l-3.05-6.801l-0.063-0.142l-0.295-0.658l1.99-1.99l0.76-0.76l0.658,0.294l2.173,0.977
			l6.809,3.057l29.844,13.403l35.065,15.749l-0.862-2.582l5.829,2.812c0,0,3.152-1.492,1.825-3.705L130.233,75.535z"/>
	</g>
</g>
<g>
</g>
<g>
</g>
<g>
</g>
<g>
</g>
<g>
</g>
<g>
</g>
<g>
</g>
<g>
</g>
<g>
</g>
<g>
</g>
<g>
</g>
<g>
</g>
<g>
</g>
<g>
</g>
<g>
</g>
</svg>
